<svg xmlns="http://www.w3.org/2000/svg" viewBox="60 14 98 98" fill="none">
  <defs>
    <linearGradient
      id="cmStar"
      x1="68.59"
      y1="62.2"
      x2="149.28"
      y2="62.2"
      gradientUnits="userSpaceOnUse">
      <stop offset="0" stop-color="#ec0c43"/>
      <stop offset="1" stop-color="#ff9100"/>
    </linearGradient>
  </defs>
  <path
    fill="url(#cmStar)"
    fill-rule="evenodd"
    d="M145.3,55.9l-19.8-9.8a1.2,1.2,0,0,1-.5-.5l-9.8-19.8a7,7,0,0,0-12.6,0L92.9,45.6c-.1.3-.3.4-.6.6L72.5,55.9a7,7,0,0,0,0,12.6l19.9,9.8.5.5,9.7,19.8a7.1,7.1,0,0,0,12.7,0L125,78.8a1.2,1.2,0,0,1,.5-.5l19.8-9.8A7,7,0,0,0,145.3,55.9Zm-14.7,1.4-9.2,8a11.5,11.5,0,0,0-3.6,6.2l-2.3,11.9a.9.9,0,0,1-1.6.4l-8-9.1a10.9,10.9,0,0,0-6.2-3.6l-12-2.4a.9.9,0,0,1-.4-1.6l9.2-8a10.8,10.8,0,0,0,3.5-6.2L102.4,41a.9.9,0,0,1,1.6-.4l8,9.1a10.9,10.9,0,0,0,6.2,3.6l12,2.4A.9.9,0,0,1,130.6,57.3Z"
  />
</svg>
